<?xml version="1.0" encoding="UTF-8"?><svg id="_Слой_2" xmlns="http://www.w3.org/2000/svg" viewBox="0 0 470.69 512"><defs><style>.cls-1{fill:#9cc3fc;}.cls-2{fill:#ff8c04;}.cls-3{fill:#f2fbff;}.cls-4{fill:#e90d38;}.cls-5{fill:#62dbfb;}.cls-6{fill:#fff;}.cls-7{fill:#0c6bc1;}.cls-8{fill:#ffb35b;}.cls-9{fill:#017bff;}</style></defs><g id="Layer_1"><path class="cls-8" d="M352.71,512H18.73c-10.34,0-18.73-8.39-18.73-18.73V69.42c0-10.34,8.39-18.73,18.73-18.73h333.99c10.34,0,18.73,8.38,18.73,18.73v423.85c0,10.34-8.39,18.73-18.73,18.73Z"/><path class="cls-2" d="M352.71,50.69h-36.06c10.34,0,18.73,8.39,18.73,18.73v423.85c0,10.34-8.39,18.73-18.73,18.73h36.06c10.34,0,18.73-8.39,18.73-18.73V69.42c0-10.34-8.39-18.73-18.73-18.73Z"/><path class="cls-6" d="M36.06,468.23V94.47c0-4.26,3.46-7.72,7.72-7.72h255.02c4.26,0,18.3,3.46,18.3,7.72v373.76c0,4.26-14.03,7.72-18.3,7.72H43.77c-4.26,0-7.72-3.46-7.72-7.72h0Z"/><path class="cls-3" d="M335.38,94.47v373.76c0,4.27-3.45,7.72-7.72,7.72h-28.88c4.27,0,7.72-3.45,7.72-7.72V94.47c0-4.26-3.45-7.72-7.72-7.72h28.88c4.27,0,7.72,3.45,7.72,7.72h0Z"/><path class="cls-1" d="M273.59,299.31h-119.84c-4.27,0-7.73-3.46-7.73-7.73s3.46-7.73,7.73-7.73h119.84c4.27,0,7.73,3.46,7.73,7.73s-3.46,7.73-7.73,7.73Z"/><path class="cls-1" d="M288.09,364h-134.34c-4.27,0-7.73-3.46-7.73-7.73s3.46-7.73,7.73-7.73h134.34c4.27,0,7.73,3.46,7.73,7.73s-3.46,7.73-7.73,7.73Z"/><path class="cls-1" d="M288.09,428.7h-134.34c-4.27,0-7.73-3.46-7.73-7.73s3.46-7.73,7.73-7.73h134.34c4.27,0,7.73,3.46,7.73,7.73s-3.46,7.73-7.73,7.73Z"/><path class="cls-4" d="M220.3,166.85h-16.27c-1.82,0-3.3-1.48-3.3-3.3v-16.27c0-3.1-2.51-5.61-5.61-5.61h-18.82c-3.1,0-5.61,2.51-5.61,5.61v16.27c0,1.82-1.48,3.3-3.3,3.3h-16.27c-3.1,0-5.61,2.51-5.61,5.61v18.82c0,3.1,2.51,5.61,5.61,5.61h16.27c1.82,0,3.3,1.48,3.3,3.3v16.27c0,3.1,2.51,5.61,5.61,5.61h18.82c3.1,0,5.61-2.51,5.61-5.61v-16.27c0-1.82,1.48-3.3,3.3-3.3h16.27c3.1,0,5.61-2.51,5.61-5.61v-18.82c0-3.1-2.51-5.61-5.61-5.61Z"/><path class="cls-9" d="M252.8,103.56H82.56c-8.67,0-14.26-9.21-10.24-16.9l18.65-35.78c3.7-7.09,11.03-11.54,19.03-11.54h34.23c3.82,0,6.93-3.1,6.93-6.92v-11.39c0-11.62,9.42-21.04,21.04-21.04h27.05c11.62,0,21.05,9.42,21.05,21.04v11.38c0,3.82,3.1,6.92,6.92,6.92h34.23c8.01,0,9.44,47.32,9.44,47.32,4.01,7.69-3.24,16.9-18.08,16.9h0Z"/><path class="cls-7" d="M227.21,39.34l-28.99-.09c-2.63,0-4.75-2.13-4.75-4.76v-13.56c0-10.89-8.27-19.85-18.87-20.93h24.64c11.62,0,21.05,9.42,21.05,21.04v11.38c0,3.82,3.1,6.92,6.92,6.92Z"/><path class="cls-7" d="M299.13,86.66l-18.65-35.78c-3.7-7.09-11.03-11.53-19.02-11.53h-34.23c7.99,0,13.48,4.45,17.18,11.53l18.65,35.78c4.01,7.69-1.57,16.9-10.25,16.9h36.08c8.68,0,14.26-9.21,10.25-16.9h0Z"/><path class="cls-1" d="M109.3,306.17h-19.1c-3.78,0-6.85-3.07-6.85-6.85v-19.1c0-3.78,3.07-6.85,6.85-6.85h19.1c3.78,0,6.85,3.07,6.85,6.85v19.1c0,3.78-3.07,6.85-6.85,6.85Z"/><path class="cls-1" d="M109.3,370.86h-19.1c-3.78,0-6.85-3.07-6.85-6.85v-19.1c0-3.78,3.07-6.85,6.85-6.85h19.1c3.78,0,6.85,3.07,6.85,6.85v19.1c0,3.78-3.07,6.85-6.85,6.85Z"/><path class="cls-1" d="M109.3,435.56h-19.1c-3.78,0-6.85-3.07-6.85-6.85v-19.1c0-3.78,3.07-6.85,6.85-6.85h19.1c3.78,0,6.85,3.07,6.85,6.85v19.1c0,3.78-3.07,6.85-6.85,6.85Z"/><path class="cls-5" d="M285.24,310.76l-23.08,8.46c-2.96,1.08-5.83-1.79-4.74-4.74l8.46-23.08c1.75-4.78,4.53-9.12,8.13-12.73l156-156c6.62-6.62,17.35-6.62,23.97,0s6.62,17.35,0,23.97l-156,156c-3.6,3.6-7.94,6.38-12.73,8.13Z"/><path class="cls-5" d="M285.24,310.76l-23.08,8.46c-2.96,1.08-5.83-1.79-4.74-4.74l8.46-23.08c1.75-4.78,4.53-9.12,8.13-12.73l156-156c6.62-6.62,17.35-6.62,23.97,0s6.62,17.35,0,23.97l-156,156c-3.6,3.6-7.94,6.38-12.73,8.13Z"/><path class="cls-7" d="M411.19,234.27c-1.98,0-3.95-.76-5.46-2.26-3.02-3.02-3.02-7.91,0-10.93l47.7-47.7c2.43-2.43,2.43-6.39,0-8.82l-9.28-9.28c-3.02-3.02-3.02-7.91,0-10.93,3.02-3.02,7.91-3.02,10.93,0l9.28,9.28c8.46,8.46,8.46,22.22,0,30.67l-47.7,47.7c-1.51,1.51-3.49,2.26-5.46,2.26h0Z"/><path class="cls-9" d="M285.24,310.76l-23.08,8.46c-2.96,1.08-5.83-1.79-4.74-4.74l8.46-23.08c1.75-4.78,4.53-9.12,8.13-12.73l156-156c6.62-6.62,17.35-6.62,23.97,0s6.62,17.35,0,23.97l-156,156c-3.6,3.6-7.94,6.38-12.73,8.13Z"/><circle class="cls-3" cx="185.72" cy="31.21" r="7.73"/></g></svg>